<?xml version="1.0" standalone="no"?>
<!DOCTYPE svg PUBLIC "-//W3C//DTD SVG 20010904//EN"
 "http://www.w3.org/TR/2001/REC-SVG-20010904/DTD/svg10.dtd">
<svg version="1.0" xmlns="http://www.w3.org/2000/svg"
 width="852.000000pt" height="582.000000pt" viewBox="0 0 852.000000 582.000000"
 preserveAspectRatio="xMidYMid meet">
<metadata>
Created by potrace 1.10, written by Peter Selinger 2001-2011
</metadata>
<g transform="translate(0.000000,582.000000) scale(0.100000,-0.100000)"
fill="#000000" stroke="none">
<path d="M1825 4950 c-11 -5 -32 -9 -47 -9 -43 -1 -147 -79 -188 -141 -76
-114 -70 43 -70 -1972 0 -1957 -3 -1828 51 -1943 24 -50 44 -74 94 -111 72
-54 119 -68 219 -69 85 0 96 2 160 35 63 32 136 100 136 127 0 6 7 16 15 23 8
7 15 20 15 29 0 9 7 29 15 45 13 25 15 255 15 1860 0 1742 -1 1834 -18 1883
-26 74 -67 133 -117 171 -24 17 -47 32 -51 32 -4 0 -15 6 -23 14 -17 14 -117
36 -160 35 -14 0 -35 -4 -46 -9z"/>
<path d="M2995 4950 c-11 -5 -30 -9 -42 -9 -12 -1 -49 -17 -82 -37 -57 -34
-97 -75 -129 -133 -43 -75 -42 -23 -42 -1933 0 -1310 3 -1832 11 -1870 21 -99
108 -200 208 -243 34 -15 68 -20 140 -20 92 0 99 2 161 37 88 49 116 79 167
178 17 33 18 123 21 1897 l2 1863 -30 63 c-31 67 -121 167 -148 167 -9 0 -23
6 -31 14 -17 14 -117 36 -160 35 -14 0 -35 -4 -46 -9z"/>
<path d="M4145 4948 c-22 -6 -47 -14 -55 -19 -8 -5 -25 -13 -38 -19 -33 -14
-115 -99 -136 -140 -48 -94 -46 -24 -46 -1943 0 -1192 4 -1817 11 -1847 16
-73 46 -124 102 -177 82 -78 133 -98 247 -97 75 1 105 5 141 22 73 34 141 101
177 176 l32 66 -2 1867 -3 1868 -23 46 c-26 53 -108 140 -155 165 -38 20 -140
44 -182 42 -16 0 -48 -5 -70 -10z"/>
<path d="M5026 4913 c-37 -6 -121 -57 -168 -101 -54 -51 -98 -161 -98 -245 0
-35 7 -84 15 -107 8 -23 15 -56 15 -72 0 -16 4 -37 10 -47 5 -10 13 -43 18
-72 5 -30 14 -74 20 -99 6 -25 18 -81 27 -125 9 -44 23 -105 30 -135 21 -86
44 -192 49 -225 4 -28 8 -47 38 -165 6 -25 14 -65 19 -90 12 -67 29 -148 44
-210 13 -56 30 -132 60 -275 9 -44 22 -98 28 -120 5 -22 14 -60 18 -85 10 -59
28 -137 41 -178 5 -19 14 -57 19 -85 18 -110 50 -255 70 -322 5 -17 13 -57 18
-90 11 -71 28 -147 43 -193 5 -19 14 -57 18 -85 9 -53 22 -116 42 -197 11 -47
18 -77 42 -195 8 -38 21 -99 29 -135 9 -36 21 -92 27 -125 15 -75 44 -171 64
-210 20 -39 101 -115 146 -137 86 -41 172 -49 260 -25 59 17 90 34 139 80 105
97 146 239 107 373 -8 27 -22 85 -31 129 -33 157 -47 221 -57 260 -6 22 -14
63 -18 90 -5 28 -13 69 -19 93 -6 23 -16 61 -22 85 -6 23 -14 62 -18 87 -5 25
-13 65 -19 90 -5 25 -18 81 -27 125 -9 44 -23 107 -30 140 -8 33 -21 94 -30
135 -9 41 -21 93 -26 115 -6 22 -14 63 -18 90 -3 28 -10 56 -15 63 -4 7 -12
37 -16 65 -5 29 -13 70 -18 92 -6 22 -18 76 -27 120 -9 44 -23 105 -30 135 -7
30 -21 91 -30 135 -9 44 -21 100 -27 125 -6 25 -14 65 -19 90 -4 25 -13 65
-19 90 -23 91 -33 136 -40 180 -4 25 -12 63 -18 85 -6 22 -18 76 -27 120 -9
44 -22 98 -28 120 -6 22 -14 63 -18 90 -4 28 -13 70 -19 95 -21 83 -33 135
-41 180 -21 119 -57 254 -82 302 -23 47 -102 120 -158 148 -44 22 -176 35
-243 23z"/>
</g>
</svg>
