<?xml version="1.0" standalone="no"?>
<!DOCTYPE svg PUBLIC "-//W3C//DTD SVG 20010904//EN"
 "http://www.w3.org/TR/2001/REC-SVG-20010904/DTD/svg10.dtd">
<svg version="1.0" xmlns="http://www.w3.org/2000/svg"
 width="654.000000pt" height="274.000000pt" viewBox="0 0 654.000000 274.000000"
 preserveAspectRatio="xMidYMid meet">
<metadata>
Created by potrace 1.16, written by Peter Selinger 2001-2019
</metadata>
<g transform="translate(0.000000,274.000000) scale(0.100000,-0.100000)"
fill="#000000" stroke="none">
<path d="M1112 2348 c-20 -20 -14 -65 10 -82 20 -14 100 -16 670 -16 l648 0 0
-648 c0 -570 2 -650 16 -670 17 -24 62 -30 82 -10 17 17 17 1409 0 1426 -17
17 -1409 17 -1426 0z"/>
<path d="M367 2122 c-21 -23 -22 -56 -1 -76 14 -14 92 -16 708 -16 752 0 729
-2 729 55 -1 57 22 55 -728 55 -658 0 -693 -1 -708 -18z"/>
<path d="M1350 1915 c0 -8 9 -15 21 -15 11 0 29 -5 40 -10 18 -10 19 -24 19
-283 0 -294 -1 -297 -52 -297 -18 0 -28 -5 -28 -15 0 -13 23 -15 150 -15 l150
0 0 -146 c0 -80 -4 -154 -10 -164 -5 -10 -23 -21 -40 -25 -16 -4 -30 -11 -30
-17 0 -6 63 -8 178 -6 170 3 179 4 228 30 102 54 149 143 149 288 0 47 -6 104
-13 127 -25 82 -103 161 -181 183 -45 12 -361 13 -361 1 0 -5 12 -12 27 -16
49 -12 53 -21 53 -126 l0 -99 -70 0 c-59 0 -71 3 -80 20 -7 14 -10 109 -8 286
3 288 2 284 61 284 17 0 27 5 27 15 0 12 -19 15 -115 15 -96 0 -115 -3 -115
-15z m536 -388 c69 -18 118 -59 151 -124 23 -48 27 -69 27 -147 1 -50 -5 -112
-13 -139 -18 -61 -88 -141 -139 -158 -50 -17 -177 -18 -194 -1 -9 9 -14 57
-16 167 l-3 154 56 3 57 3 30 74 c33 85 25 113 -15 52 -30 -45 -86 -91 -110
-91 -15 0 -17 13 -17 88 0 92 9 117 45 125 39 9 91 7 141 -6z"/>
<path d="M1112 1898 c-17 -17 -17 -1409 0 -1426 17 -17 1409 -17 1426 0 18 18
14 63 -6 81 -17 15 -78 17 -670 17 l-652 0 0 648 c0 570 -2 650 -16 670 -17
24 -62 30 -82 10z"/>
<path d="M4815 1723 c-49 -25 -86 -65 -111 -118 -19 -40 -24 -66 -24 -135 0
-126 42 -205 134 -252 55 -28 149 -22 200 12 103 69 144 239 90 368 -19 47
-79 110 -121 128 -43 19 -131 17 -168 -3z m167 -38 c105 -71 125 -282 38 -393
-70 -89 -181 -81 -247 17 -50 74 -59 203 -19 286 23 49 66 97 96 108 39 14 97
6 132 -18z"/>
<path d="M2990 1720 c0 -5 9 -10 19 -10 11 0 27 -7 35 -16 14 -14 16 -45 14
-227 l-3 -212 -32 -14 c-18 -8 -33 -18 -33 -23 0 -4 82 -8 183 -8 l184 0 25
65 c30 74 22 92 -16 37 -40 -59 -78 -76 -168 -77 -42 0 -80 4 -85 8 -4 5 -8
107 -8 228 0 236 1 238 53 239 12 0 22 5 22 10 0 6 -38 10 -95 10 -57 0 -95
-4 -95 -10z"/>
<path d="M3460 1720 c0 -5 9 -10 20 -10 11 0 26 -11 35 -24 13 -19 15 -57 13
-227 l-3 -204 -32 -14 c-18 -8 -33 -18 -33 -23 0 -4 41 -8 90 -8 89 0 118 12
60 25 -19 4 -32 14 -35 28 -3 12 -4 112 -3 222 l3 200 32 15 c18 8 33 18 33
23 0 4 -40 7 -90 7 -53 0 -90 -4 -90 -10z"/>
<path d="M3690 1722 c0 -4 14 -13 30 -19 l30 -11 0 -222 0 -221 -30 -10 c-16
-6 -30 -15 -30 -20 0 -5 85 -9 193 -9 l193 0 22 62 c12 33 20 63 18 65 -2 3
-26 -18 -53 -45 -47 -49 -49 -50 -123 -56 -41 -4 -88 -3 -105 2 l-30 8 -3 112
-3 112 66 0 c82 0 102 -10 111 -55 12 -66 24 -35 24 65 0 99 -12 131 -24 66
-8 -41 -41 -56 -122 -56 l-54 0 0 100 c0 99 0 101 26 110 74 28 174 4 232 -57
24 -25 45 -43 46 -41 2 1 -8 31 -21 66 l-25 62 -184 0 c-101 0 -184 -4 -184
-8z"/>
<path d="M4160 1723 c0 -5 15 -15 33 -23 l32 -15 3 -195 c1 -107 0 -205 -3
-218 -3 -14 -18 -27 -35 -34 -64 -22 -29 -30 118 -26 159 4 181 10 236 64 53
53 61 80 61 195 0 100 -2 108 -30 154 -22 36 -45 57 -84 77 -51 27 -60 28
-192 28 -77 0 -139 -3 -139 -7z m251 -24 c62 -14 119 -65 137 -125 20 -69 15
-172 -12 -230 -35 -75 -73 -98 -168 -103 -69 -3 -77 -1 -87 18 -8 13 -11 89
-9 223 l3 202 25 13 c31 16 45 16 111 2z"/>
<path d="M5180 1721 c0 -5 14 -14 30 -20 l30 -10 0 -213 c0 -117 -4 -218 -8
-224 -4 -6 -17 -14 -29 -18 -45 -14 -21 -26 52 -26 79 0 96 11 45 29 l-30 10
0 202 0 201 161 -221 c89 -121 168 -221 175 -221 12 0 14 43 14 245 l0 246 30
6 c55 10 31 23 -45 23 -74 0 -99 -12 -50 -24 14 -4 27 -16 30 -29 3 -12 4 -98
3 -192 l-3 -170 -155 207 -155 207 -47 1 c-27 0 -48 -4 -48 -9z"/>
<path d="M1828 779 c-24 -13 -23 -61 0 -82 17 -16 81 -17 709 -17 656 0 691 1
706 18 20 22 22 63 5 80 -16 16 -1394 17 -1420 1z"/>
</g>
</svg>
